# xmcd
#
# Track frame offsets: 
#        151
#        57605
#        80429
#        112571
#        148943
#        177220
#        221984
#
# Disc length: 3359 seconds
#
# Revision: 0
# Processed by: cddbd v1.5.2PL0 Copyright (c) Steve Scherf et al.
# Submitted via: ExactAudioCopy v0.95b4
#
DISCID=640d1d07
DTITLE=Eric Clapton - 1998-10-15 - ECEC - CD2
DYEAR=1998
DGENRE=Blues
TTITLE0=Old Love
TTITLE1=Crossroads
TTITLE2=Have You Ever Loved A Woman
TTITLE3=I Shot The Sheriff
TTITLE4=Wonderful Tonight
TTITLE5=Cocaine
TTITLE6=Before You Accuse Me
EXTD=
EXTT0=
EXTT1=
EXTT2=
EXTT3=
EXTT4=
EXTT5=
EXTT6=
PLAYORDER=
